<svg width="32" height="32" viewBox="0 0 32 32" fill="none"
    xmlns="http://www.w3.org/2000/svg">
    <g clip-path="url(#clip0_3_21)">
        <path fill-rule="evenodd" clip-rule="evenodd" d="M25.4632 24.5599L24.4201 25.5816C24.623 30.384 24.4468 30.4537 23.9415 30.6514L20.7438 31.9257L20.7437 31.9257C20.2679 32.1154 20.0922 32.1855 17.0144 28.9604C18.6785 28.8301 20.3127 28.3797 21.824 27.6224L20.654 25.2954C18.6306 26.3079 16.3323 26.6329 14.1075 26.2212C11.8828 25.8095 9.85295 24.6835 8.32593 23.014C6.7989 21.3445 5.85796 19.2226 5.64582 16.97C5.43369 14.7174 5.96192 12.4571 7.15041 10.5319C8.3389 8.60661 10.1228 7.12146 12.2316 6.30164C14.3404 5.48181 16.659 5.37204 18.8358 5.98897C21.0126 6.60591 22.9289 7.91589 24.2939 9.72024C25.659 11.5246 26.3984 13.7249 26.4 15.9874V17.9374C26.4 18.4546 26.1946 18.9506 25.8289 19.3163C25.4632 19.682 24.9672 19.8874 24.45 19.8874C23.9328 19.8874 23.4368 19.682 23.0711 19.3163C22.7054 18.9506 22.5 18.4546 22.5 17.9374V9.48744H19.9V10.7874C18.9343 10.0632 17.786 9.62211 16.5837 9.5137C15.3815 9.4053 14.1728 9.63382 13.0931 10.1737C12.0134 10.7135 11.1054 11.5433 10.4708 12.5702C9.83615 13.597 9.50001 14.7803 9.50001 15.9874C9.49348 17.2861 9.87692 18.5569 10.6007 19.6352C11.3245 20.7136 12.3553 21.5498 13.5596 22.0358C14.764 22.5217 16.0865 22.635 17.356 22.3609C18.6219 22.0876 19.7769 21.4417 20.6724 20.5064C21.2182 21.3105 22.0073 21.9188 22.9241 22.2421C23.8438 22.5664 24.8435 22.5866 25.7756 22.2996C26.7077 22.0127 27.523 21.4339 28.1012 20.6485C28.6794 19.8631 28.9899 18.9127 28.987 17.9374V17.2428C31.6739 19.7873 31.8376 20.1767 31.8922 20.3107L32 20.5747L31.9015 20.8764L30.5756 24.0593C30.3635 24.5485 30.2893 24.7153 25.4632 24.5599ZM28.9704 15.1238C32.1159 12.1208 32.0436 11.9446 31.8522 11.4777L31.8516 11.4763L30.5315 8.26022L30.5313 8.25957C30.3411 7.79668 30.2622 7.60465 26.0095 7.70475C26.1311 7.85153 26.2497 8.0012 26.3651 8.15371C27.8979 10.1785 28.8002 12.6025 28.9704 15.1238ZM14.9661 28.9588C14.5233 28.9235 14.0811 28.8654 13.6411 28.7842C11.3802 28.367 9.28007 27.3597 7.54741 25.8769C7.48286 27.2678 7.54603 28.6619 7.73633 30.0423L7.87077 30.3451L11.3397 31.84L11.3403 31.8403C11.8281 32.0415 12.0088 32.1161 14.9661 28.9588ZM5.99532 24.301C4.33064 22.2947 3.30433 19.8297 3.05782 17.2246C3.04685 17.1087 3.03745 16.9927 3.02962 16.8768C-0.114018 19.8782 -0.0412919 20.055 0.151119 20.5227L0.151829 20.5244L1.47077 23.7439C1.66457 24.2173 1.73849 24.3972 5.99532 24.301ZM3.05545 14.8006C3.23929 12.8166 3.87793 10.89 4.93525 9.1757C5.31717 8.55647 5.74835 7.97362 6.22305 7.43196C1.71309 7.29423 1.6376 7.46654 1.43252 7.9425L0.10431 11.1265L0 11.4317L0.108946 11.6968L0.10916 11.6974C0.164218 11.8303 0.326013 12.2211 3.05545 14.8006ZM7.56273 6.11C8.66307 5.17129 9.91952 4.41662 11.2851 3.88516C12.4798 3.42018 13.7286 3.13756 14.9903 3.03927C11.9159 -0.183569 11.7516 -0.118094 11.2645 0.0760029L11.2643 0.0760917L8.05969 1.35383C7.56906 1.54936 7.3886 1.62146 7.56273 6.11ZM17.0364 3.04137C17.8792 3.10877 18.718 3.2586 19.5407 3.49145C21.3603 4.0065 23.0343 4.90893 24.4543 6.12452C24.5182 4.73478 24.4533 3.34181 24.2602 1.96298L24.1257 1.6624L20.6789 0.176665L20.6783 0.1764C20.1871 -0.0447857 20.0031 -0.127608 17.0364 3.04137Z" fill="#A68323"/>
    </g>
    <defs>
        <clipPath id="clip0_3_21">
            <rect width="32" height="32" fill="white"/>
        </clipPath>
    </defs>
</svg>
