<svg width="32" height="32" viewBox="0 0 32 32" fill="none"
    xmlns="http://www.w3.org/2000/svg">
    <path d="M20.68 20.4984C19.7834 21.438 18.6254 22.0868 17.356 22.3609C16.0865 22.635 14.764 22.5217 13.5596 22.0358C12.3553 21.5498 11.3245 20.7136 10.6007 19.6352C9.87692 18.5569 9.49348 17.2861 9.50001 15.9874C9.50001 14.7803 9.83615 13.597 10.4708 12.5702C11.1054 11.5433 12.0134 10.7135 13.0931 10.1737C14.1728 9.63382 15.3815 9.4053 16.5837 9.5137C17.786 9.62211 18.9343 10.0632 19.9 10.7874V9.48744H22.5V17.9374C22.5 18.4546 22.7054 18.9506 23.0711 19.3163C23.4368 19.682 23.9328 19.8874 24.45 19.8874C24.9672 19.8874 25.4632 19.682 25.8289 19.3163C26.1946 18.9506 26.4 18.4546 26.4 17.9374V15.9874C26.3984 13.7249 25.659 11.5246 24.2939 9.72024C22.9289 7.91589 21.0126 6.60591 18.8358 5.98898C16.659 5.37204 14.3404 5.48181 12.2316 6.30164C10.1228 7.12146 8.3389 8.60661 7.15041 10.5319C5.96192 12.4571 5.43369 14.7174 5.64582 16.97C5.85796 19.2226 6.7989 21.3445 8.32593 23.014C9.85295 24.6835 11.8828 25.8095 14.1075 26.2212C16.3323 26.6329 18.6306 26.3079 20.654 25.2954L21.824 27.6224C19.2954 28.8895 16.4225 29.2974 13.6411 28.7842C10.8597 28.271 8.32155 26.8646 6.41164 24.7785C4.50173 22.6924 3.32426 20.0404 3.05782 17.2246C2.79139 14.4089 3.45052 11.583 4.93525 9.1757C6.41998 6.76839 8.6493 4.91097 11.2851 3.88516C13.9208 2.85936 16.8192 2.72113 19.5407 3.49145C22.2621 4.26178 24.658 5.89862 26.3651 8.15371C28.0722 10.4088 28.9973 13.1591 29 15.9874H28.766H28.987V17.9374C28.9899 18.9127 28.6794 19.8631 28.1012 20.6485C27.523 21.4339 26.7077 22.0127 25.7756 22.2996C24.8435 22.5866 23.8438 22.5664 22.9241 22.2421C22.0043 21.9178 21.213 21.3065 20.667 20.4984H20.68ZM16 19.8874C17.0343 19.8874 18.0263 19.4765 18.7577 18.7451C19.4891 18.0138 19.9 17.0218 19.9 15.9874C19.9 14.9531 19.4891 13.9611 18.7577 13.2297C18.0263 12.4983 17.0343 12.0874 16 12.0874C14.9657 12.0874 13.9737 12.4983 13.2423 13.2297C12.5109 13.9611 12.1 14.9531 12.1 15.9874C12.1 17.0218 12.5109 18.0138 13.2423 18.7451C13.9737 19.4765 14.9657 19.8874 16 19.8874Z" fill="#007ACC"/>
</svg>
