<svg width="32" height="32" viewBox="0 0 32 32" fill="none"
    xmlns="http://www.w3.org/2000/svg">
    <g clip-path="url(#clip0_16_64)">
        <path fill-rule="evenodd" clip-rule="evenodd" d="M11.8286 3.2L12.9712 3.2C17.2631 3.2 20.7429 6.67931 20.7429 10.9714V23.7714C20.7429 26.0437 18.9008 27.8857 16.6286 27.8857H16.1714C14.38 27.8857 12.8561 26.7408 12.2913 25.1429H8.4C6.63269 25.1429 5.2 23.7102 5.2 21.9429V13.7143C5.2 11.947 6.63269 10.5143 8.4 10.5143H14.8V23.7714C14.8 24.5288 15.414 25.1429 16.1714 25.1429H16.6286C17.386 25.1429 18 24.5288 18 23.7714V10.9714C18 8.19429 15.7484 5.94285 12.9712 5.94285L11.8286 5.94285C10.5919 5.94285 9.23427 6.33125 8.12715 6.7633C7.58596 6.9745 7.13018 7.18591 6.81182 7.34345C6.65308 7.422 6.52968 7.48658 6.44823 7.53023C6.40753 7.55204 6.3774 7.56857 6.35866 7.57896L6.33922 7.5898L6.33713 7.59098C6.33734 7.59086 6.33756 7.59073 5.65715 6.4C4.97673 5.20926 4.97697 5.20912 4.97723 5.20898L4.97918 5.20786L4.98282 5.2058L4.99361 5.1997L5.02896 5.17996C5.05854 5.16357 5.10006 5.14082 5.15267 5.11262C5.25782 5.05628 5.40764 4.97799 5.59533 4.88512C5.96982 4.6998 6.49976 4.45407 7.13 4.20812C8.36573 3.72588 10.0939 3.2 11.8286 3.2ZM12.0571 22.4V13.2571H8.4C8.14753 13.2571 7.94286 13.4618 7.94286 13.7143V21.9429C7.94286 22.1953 8.14753 22.4 8.4 22.4H12.0571ZM6.33628 7.59147C6.33614 7.59154 6.33604 7.5916 6.33628 7.59147Z" fill="#471AEC"/>
        <path fill-rule="evenodd" clip-rule="evenodd" d="M31.6081 14.415L29.1141 15.2044L28.9707 14.7793C28.8828 14.5187 28.7515 14.2607 28.5733 14.0052L28.5677 13.9972C28.4163 13.7699 28.2052 13.5756 27.9221 13.4172C27.6707 13.2767 27.3193 13.1904 26.8401 13.1904C26.1959 13.1904 25.6948 13.3549 25.3051 13.6562L25.3043 13.6568C24.9302 13.9448 24.7645 14.2837 24.7645 14.7023C24.7645 15.0999 24.8884 15.3678 25.1057 15.5614C25.3598 15.7879 25.7973 16.0086 26.468 16.1962L26.469 16.1965L28.2263 16.6792C29.3399 16.9816 30.2221 17.4577 30.8202 18.1395C31.4267 18.825 31.7143 19.6963 31.7143 20.7131C31.7143 21.5555 31.4961 22.3225 31.0537 23.0001C30.6192 23.6736 30.0136 24.1984 29.2521 24.5769C28.4831 24.9591 27.6029 25.1429 26.6239 25.1429C25.3388 25.1429 24.2359 24.8299 23.348 24.1722C22.4474 23.5051 21.8935 22.5373 21.6649 21.3153L21.588 20.9037L24.1818 20.1785L24.2894 20.6448C24.4368 21.2832 24.7032 21.7154 25.0584 21.9926C25.4218 22.2722 25.9199 22.4322 26.593 22.4322C27.3718 22.4322 27.9338 22.248 28.3288 21.9293C28.7427 21.5938 28.9158 21.2284 28.9158 20.8167C28.9158 20.4605 28.8082 20.189 28.6053 19.9703L28.6025 19.9672C28.3947 19.739 28.0445 19.5362 27.4972 19.3937L25.5184 18.875C24.3782 18.5728 23.483 18.0899 22.8922 17.3891L22.8893 17.3858C22.3067 16.681 22.0278 15.8102 22.0278 14.8059C22.0278 13.9769 22.2372 13.2263 22.6658 12.5697L22.6674 12.5673C23.0951 11.921 23.6749 11.4169 24.3957 11.0551L24.397 11.0545C25.1272 10.6908 25.9449 10.5143 26.8401 10.5143C28.0865 10.5143 29.126 10.8206 29.9021 11.488C30.6503 12.127 31.1734 12.9653 31.4788 13.9837L31.6081 14.415Z" fill="#471AEC"/>
    </g>
    <defs>
        <clipPath id="clip0_16_64">
            <rect width="32" height="32" fill="white"/>
        </clipPath>
    </defs>
</svg>
