<svg width="128" height="128" viewBox="0 0 128 128" fill="none"
    xmlns="http://www.w3.org/2000/svg">
    <g clip-path="url(#clip0_16_55)">
        <rect width="128" height="128" rx="10" fill="#C77728"/>
        <path fill-rule="evenodd" clip-rule="evenodd" d="M63.1071 53.5L66.1422 53.5C77.5427 53.5 86.7857 62.7419 86.7857 74.1429V108.143C86.7857 114.179 81.8928 119.071 75.8571 119.071H74.6429C69.8845 119.071 65.8364 116.03 64.3361 111.786H54C49.3056 111.786 45.5 107.98 45.5 103.286V81.4286C45.5 76.7342 49.3056 72.9286 54 72.9286H71V108.143C71 110.155 72.631 111.786 74.6429 111.786H75.8571C77.869 111.786 79.5 110.155 79.5 108.143V74.1429C79.5 66.7661 73.5193 60.7857 66.1422 60.7857L63.1071 60.7857C59.8221 60.7857 56.216 61.8174 53.2752 62.965C51.8377 63.526 50.627 64.0876 49.7814 64.506C49.3597 64.7147 49.032 64.8862 48.8156 65.0022C48.7075 65.0601 48.6275 65.104 48.5777 65.1316L48.5261 65.1604L48.5205 65.1635C48.5211 65.1632 48.5217 65.1629 46.7143 62C44.9069 58.8371 44.9076 58.8367 44.9083 58.8364L44.9134 58.8334L44.9231 58.8279L44.9518 58.8117L45.0457 58.7593C45.1243 58.7157 45.2345 58.6553 45.3743 58.5804C45.6536 58.4307 46.0515 58.2228 46.5501 57.9761C47.5448 57.4839 48.9525 56.8311 50.6266 56.1778C53.909 54.8969 58.4993 53.5 63.1071 53.5ZM63.7143 104.5V80.2143H54C53.3294 80.2143 52.7857 80.7579 52.7857 81.4286V103.286C52.7857 103.956 53.3294 104.5 54 104.5H63.7143ZM48.5182 65.1648C48.5179 65.165 48.5176 65.1652 48.5182 65.1648Z" fill="white"/>
        <path fill-rule="evenodd" clip-rule="evenodd" d="M115.647 83.2897L109.022 85.3866L108.641 84.2576C108.407 83.5653 108.059 82.8799 107.585 82.2012L107.571 82.18C107.168 81.5762 106.608 81.0601 105.855 80.6394C105.188 80.2661 104.255 80.0369 102.982 80.0369C101.27 80.0369 99.9392 80.4738 98.9043 81.2742L98.9021 81.276C97.9082 82.0408 97.4682 82.9412 97.4682 84.0529C97.4682 85.1091 97.7974 85.8207 98.3745 86.335C99.0496 86.9366 100.212 87.5229 101.993 88.0212L101.996 88.022L106.664 89.3042C109.622 90.1074 111.965 91.3721 113.554 93.1831C115.165 95.004 115.929 97.3183 115.929 100.019C115.929 102.257 115.349 104.294 114.174 106.094C113.02 107.883 111.411 109.277 109.388 110.282C107.346 111.298 105.008 111.786 102.407 111.786C98.9936 111.786 96.0641 110.954 93.7056 109.207C91.3135 107.435 89.8421 104.865 89.235 101.619L89.0305 100.525L95.9205 98.5991L96.2064 99.8378C96.5977 101.534 97.3054 102.682 98.2488 103.418C99.2143 104.161 100.537 104.586 102.325 104.586C104.394 104.586 105.887 104.096 106.936 103.25C108.035 102.359 108.495 101.388 108.495 100.294C108.495 99.3483 108.209 98.6271 107.67 98.046L107.663 98.0379C107.111 97.4317 106.181 96.8929 104.727 96.5144L99.4708 95.1367C96.4422 94.3341 94.0641 93.0513 92.4949 91.1899L92.4873 91.1809C90.9398 89.3089 90.1988 86.9958 90.1988 84.3282C90.1988 82.1261 90.7552 80.1325 91.8936 78.3883L91.8978 78.3819C93.0338 76.6651 94.5741 75.3262 96.4886 74.3652L96.492 74.3635C98.4316 73.3975 100.604 72.9286 102.982 72.9286C106.292 72.9286 109.054 73.7422 111.115 75.5149C113.102 77.2122 114.492 79.4392 115.303 82.1442L115.647 83.2897Z" fill="white"/>
    </g>
    <defs>
        <clipPath id="clip0_16_55">
            <rect width="128" height="128" fill="white"/>
        </clipPath>
    </defs>
</svg>
