<svg width="151" height="152" viewBox="0 0 151 152" fill="none" xmlns="http://www.w3.org/2000/svg">
<path d="M14.9961 41L74.9961 3.5L134.996 41V114.5L74.9961 149.5L14.9961 114.5V41Z" fill="url(#paint0_linear_2279_260)"/>
<path d="M38 54.3733L75 31L112 54.3733V100.185L75 122L38 100.185V54.3733Z" fill="url(#paint1_linear_2279_260)"/>
<path d="M132.22 60.4231L131.718 61.3025V110.42C131.718 111.802 131.467 113.058 130.839 113.56L90.0549 137.679C87.4196 138.559 87.7961 144.212 92.4392 143.709L135.482 118.711C136.988 117.58 138.369 115.068 138.243 112.43V61.805C137.741 58.9157 134.729 56.9058 132.22 60.4231ZM60.1882 137.931L19.1529 113.686C18.5255 113.058 18.0235 112.179 18.0235 111.299L17.898 61.805L17.1451 59.795C15.3882 57.9107 12.3765 58.6645 12 62.1818V112.681C12.251 114.817 13.3804 117.58 15.2627 118.711L57.302 143.709C61.8196 145.217 63.451 139.438 60.1882 137.931ZM120.549 26.2545L78.6353 1.00496C77.3804 0.37686 76.3765 0 75.1216 0C73.8667 0 72.4863 0.502479 71.2314 1.2562L30.0706 26.2545C27.5608 28.6413 27.4353 34.2942 33.4588 32.6612L73.6157 7.41157C74.1177 7.03471 74.4941 6.78347 75.1216 6.78347C75.749 6.78347 76.1255 6.90909 76.6275 7.16033L116.659 31.5306C122.306 35.8017 123.184 28.3901 120.549 26.2545Z" fill="#471AEC"/>
<path d="M24.4235 43.967L18.4 40.5752L22.9176 37.8116C23.9216 36.8066 22.7921 34.1686 20.7843 34.4199L15.1372 37.8116C14.0078 38.6909 13.0039 40.7008 12.8784 41.957V49.8711L14.3843 51.1273C15.2627 51.5042 16.7686 50.6248 16.6431 49.7455V43.5901C18.7765 44.8463 23.0431 47.4843 24.047 47.2331L25.1765 45.7256V44.8463L24.4235 43.967ZM135.357 38.4397L129.333 34.5455C128.078 34.043 126.196 36.0529 126.824 37.3091L131.969 40.5752L130.212 41.957C129.584 42.8364 130.839 44.7207 131.843 44.2182L133.976 43.4645V49.8711C134.353 51.0017 135.859 51.881 136.988 50.248L137.741 49.7455V41.957C137.741 40.9521 136.863 39.1934 135.357 38.4397ZM81.0196 143.835L76.7529 146.347L76.3765 138.056C76.3765 137.679 76.5019 127.881 76.3765 127.253C76 125.745 73.4902 125.997 73.3647 127.63V137.679L73.4902 138.559L73.2392 146.473L68.9725 143.835C67.3412 143.835 65.5843 146.222 67.2157 147.478L72.6118 150.869C73.8667 151.372 76.3765 151.498 77.5059 150.869L82.902 147.603C84.7843 146.473 83.2784 142.83 81.0196 143.835Z" fill="#471AEC"/>
<path d="M77.0039 75.4976L75.4981 76.2513L74.2431 76.1257L71.7333 75.3719C69.851 75.1207 69.9765 78.01 71.3569 78.6381L73.3647 80.3967H75.8745L77.8824 78.7637C79.5137 78.3868 78.6353 74.4926 77.0039 75.4976Z" fill="#471AEC"/>
<path d="M73.3647 88.4363V99.6165L74.4941 100.621C75.749 100.873 76.7529 99.7421 76.6274 99.2397V88.3107L75.8745 87.0545C74.4941 86.4264 73.4902 87.557 73.3647 88.4363Z" fill="#471AEC"/>
<path d="M73.2392 109.792V118.962L73.8666 120.218C75.1215 121.6 77.0039 120.218 76.8784 119.213V109.666L76.251 108.536C74.9961 107.279 73.2392 108.787 73.2392 109.792Z" fill="#471AEC"/>
<path d="M30.5725 49.243C29.4431 49.7454 28.5647 51.3785 29.9451 52.2578L34.5882 55.0215L35.5921 54.7702L36.4706 53.2628L36.0941 52.0066C35.0902 51.0016 31.2 48.9917 30.5725 49.243ZM43.1215 56.6545C41.4902 56.4033 39.6078 58.9157 41.4902 60.1719L49.898 65.1967C51.6549 66.076 53.5372 62.9355 51.2784 61.805C51.2784 61.805 44.7529 57.157 43.1215 56.6545ZM59.1843 67.081C58.0549 66.5785 56.1725 69.0909 57.6784 70.0959L64.4549 74.4926L65.7098 74.995L66.9647 73.6132V72.1058L65.7098 71.1008L59.1843 67.081Z" fill="#471AEC"/>
<path d="M107.373 56.9058L99.2157 61.805C97.5843 63.1868 98.8392 65.9504 100.847 65.1967L108.878 60.2976L109.506 59.6695C110.384 58.5389 108.753 55.6496 107.373 56.9058ZM122.306 46.4794L114.651 51.6298L113.773 52.886L115.027 55.3984H116.157L124.063 50.1223L125.067 48.4893L124.063 46.4794H122.306Z" fill="#471AEC"/>
<path d="M90.8078 66.8297L83.2784 71.4776C81.7725 72.6082 83.5294 74.995 84.9098 74.4925L86.4157 73.99L92.6902 69.9702C94.0706 68.3371 92.4392 65.9504 90.8078 66.8297Z" fill="#471AEC"/>
<path fill-rule="evenodd" clip-rule="evenodd" d="M84.5 72L86.9994 72C96.3881 72 104 79.611 104 89V117C104 121.971 99.9706 126 95 126H94C90.0813 126 86.7476 123.496 85.5121 120H77C73.134 120 70 116.866 70 113V95C70 91.134 73.134 88 77 88H91V117C91 118.657 92.3431 120 94 120H95C96.6569 120 98 118.657 98 117V89C98 82.925 93.0747 78 86.9994 78L84.5 78C81.7947 78 78.825 78.8496 76.4031 79.7947C75.2193 80.2567 74.2223 80.7192 73.5259 81.0638C73.1786 81.2356 72.9087 81.3769 72.7305 81.4724C72.6415 81.5201 72.5756 81.5563 72.5346 81.579L72.4921 81.6027L72.4875 81.6053C72.4879 81.605 72.4884 81.6047 71 79C69.5116 76.3953 69.5121 76.395 69.5127 76.3946L69.517 76.3922L69.5249 76.3877L69.5485 76.3744L69.6258 76.3312C69.6906 76.2953 69.7814 76.2455 69.8965 76.1839C70.1265 76.0606 70.4542 75.8894 70.8648 75.6862C71.684 75.2808 72.8432 74.7433 74.2219 74.2053C76.925 73.1504 80.7053 72 84.5 72ZM85 114V94H77C76.4477 94 76 94.4477 76 95V113C76 113.552 76.4477 114 77 114H85ZM72.4856 81.6063C72.4853 81.6065 72.4851 81.6066 72.4856 81.6063Z" fill="white"/>
<path fill-rule="evenodd" clip-rule="evenodd" d="M127.768 96.5327L122.312 98.2596L121.998 97.3298C121.806 96.7597 121.519 96.1953 121.129 95.6363L121.117 95.6188C120.786 95.1216 120.324 94.6965 119.705 94.3501C119.155 94.0427 118.386 93.8539 117.338 93.8539C115.929 93.8539 114.832 94.2138 113.98 94.8729L113.978 94.8743C113.16 95.5042 112.797 96.2457 112.797 97.1612C112.797 98.031 113.068 98.617 113.544 99.0406C114.1 99.5361 115.057 100.019 116.524 100.429L116.526 100.43L120.37 101.486C122.806 102.147 124.736 103.189 126.044 104.68C127.371 106.18 128 108.086 128 110.31C128 112.153 127.523 113.83 126.555 115.313C125.604 116.786 124.28 117.934 122.614 118.762C120.932 119.598 119.006 120 116.865 120C114.054 120 111.641 119.315 109.699 117.877C107.729 116.417 106.517 114.3 106.017 111.627L105.849 110.727L111.523 109.14L111.758 110.161C112.08 111.557 112.663 112.503 113.44 113.109C114.235 113.72 115.325 114.071 116.797 114.071C118.501 114.071 119.73 113.668 120.594 112.97C121.5 112.237 121.878 111.437 121.878 110.537C121.878 109.757 121.643 109.163 121.199 108.685L121.193 108.678C120.738 108.179 119.972 107.735 118.775 107.424L114.447 106.289C111.952 105.628 109.994 104.572 108.702 103.039L108.695 103.031C107.421 101.49 106.811 99.5848 106.811 97.3879C106.811 95.5744 107.269 93.9326 108.207 92.4962L108.21 92.491C109.145 91.0771 110.414 89.9745 111.991 89.1831L111.993 89.1817C113.591 88.3862 115.38 88 117.338 88C120.064 88 122.338 88.67 124.036 90.1299C125.673 91.5277 126.817 93.3617 127.485 95.5893L127.768 96.5327Z" fill="white"/>
<defs>
<linearGradient id="paint0_linear_2279_260" x1="17.5" y1="41" x2="135" y2="115" gradientUnits="userSpaceOnUse">
<stop stop-color="#5A2DFC"/>
<stop offset="1" stop-color="#380DD6"/>
</linearGradient>
<linearGradient id="paint1_linear_2279_260" x1="39.5441" y1="54.3733" x2="112.44" y2="99.7945" gradientUnits="userSpaceOnUse">
<stop stop-color="#744FF9"/>
<stop offset="1" stop-color="#461AE6"/>
</linearGradient>
</defs>
</svg>
